<?xml version="1.0" standalone="no"?>
<!DOCTYPE svg PUBLIC "-//W3C//DTD SVG 20010904//EN"
 "http://www.w3.org/TR/2001/REC-SVG-20010904/DTD/svg10.dtd">
<svg version="1.0" xmlns="http://www.w3.org/2000/svg"
 width="528.000000pt" height="240.000000pt" viewBox="0 0 528.000000 240.000000"
 preserveAspectRatio="xMidYMid meet">
<metadata>
Created by potrace 1.15, written by Peter Selinger 2001-2017
</metadata>
<g transform="translate(0.000000,240.000000) scale(0.100000,-0.100000)"
fill="#000000" stroke="none">
<path d="M1320 2196 l0 -126 -279 0 -278 0 -6 -67 c-4 -38 -7 -366 -7 -730 l0
-663 1870 0 1870 0 0 730 0 730 -1340 0 -1340 0 0 -50 0 -50 1285 0 1285 0 0
-625 0 -625 -1760 0 -1760 0 0 620 0 620 230 0 229 0 3 -114 3 -114 90 72 c50
39 133 105 186 146 l97 76 -165 129 c-90 72 -175 138 -189 148 l-24 19 0 -126z"/>
<path d="M1320 1647 c0 -2 -29 -149 -65 -327 -36 -178 -65 -325 -65 -327 0 -2
42 -3 94 -3 l94 0 17 93 c9 50 19 100 22 110 4 15 20 17 148 17 142 0 145 0
150 23 14 63 25 113 25 120 0 4 -65 7 -145 7 -80 0 -145 3 -145 8 0 6 11 56
25 120 5 22 7 22 169 22 l165 0 11 58 c6 31 13 63 15 70 3 9 -52 12 -255 12
-143 0 -260 -1 -260 -3z"/>
<path d="M1925 1638 c-5 -16 -125 -627 -125 -639 0 -5 40 -9 89 -9 101 0 92
-8 112 98 10 53 18 67 52 99 40 36 40 36 57 15 9 -11 43 -63 76 -116 l59 -95
103 -1 c56 0 102 2 102 5 0 3 -47 82 -105 175 -58 94 -105 172 -105 174 0 2
66 64 148 137 81 73 156 141 167 151 19 18 17 18 -90 18 l-110 0 -144 -131
c-78 -72 -145 -128 -147 -126 -3 2 4 44 15 93 10 49 22 106 25 127 l7 37 -91
0 c-63 0 -92 -4 -95 -12z"/>
<path d="M2635 1628 c-10 -41 -125 -622 -125 -630 0 -4 100 -8 223 -8 239 0
291 8 357 52 52 36 73 71 78 134 5 65 -13 110 -54 135 l-25 15 41 33 c56 45
73 82 68 149 -4 48 -10 60 -41 88 -19 18 -52 37 -74 43 -21 6 -128 11 -240 11
-202 0 -203 0 -208 -22z m332 -119 c50 -19 57 -56 18 -94 -22 -23 -31 -25
-120 -25 -87 0 -96 2 -91 18 3 9 8 35 12 57 4 22 9 43 11 48 6 11 138 8 170
-4z m-18 -260 c41 -14 51 -51 24 -87 -25 -34 -48 -40 -162 -41 -92 -1 -93 -1
-88 22 3 12 9 43 12 70 l7 47 88 0 c48 0 101 -5 119 -11z"/>
<path d="M3365 1638 c-7 -20 -125 -620 -125 -635 0 -10 22 -13 89 -13 l90 0
11 58 c6 31 14 67 17 78 2 12 23 40 46 62 l42 41 75 -119 75 -120 103 0 c56 0
102 2 102 4 0 2 -45 77 -101 166 -55 90 -103 168 -105 175 -4 10 200 206 306
294 l25 20 -111 1 -111 0 -143 -130 c-79 -71 -145 -128 -147 -127 -2 2 8 59
22 127 14 67 25 124 25 126 0 2 -41 4 -90 4 -64 0 -92 -4 -95 -12z"/>
<path d="M429 291 c-62 -62 -22 -171 58 -158 44 8 69 29 83 73 21 63 -11 114
-72 114 -30 0 -46 -7 -69 -29z"/>
<path d="M606 229 c-9 -50 -15 -93 -12 -96 11 -11 24 9 30 47 4 27 11 40 22
40 29 0 52 -20 64 -55 6 -19 18 -35 26 -35 19 0 18 8 -6 52 -19 37 -19 37 0
43 38 12 47 66 16 87 -6 4 -36 8 -67 8 l-55 0 -18 -91z"/>
<path d="M995 308 c-10 -32 -35 -172 -31 -176 12 -11 24 13 37 70 l13 63 9
-67 c6 -45 14 -68 23 -68 7 0 27 27 45 60 18 33 34 59 36 57 2 -2 -2 -27 -9
-55 -11 -50 -5 -80 11 -54 11 19 43 173 37 179 -13 14 -37 -11 -72 -77 l-39
-72 -14 76 c-9 53 -17 76 -27 76 -8 0 -16 -6 -19 -12z"/>
<path d="M1456 291 c-41 -42 -42 -104 -3 -137 64 -55 147 -3 147 91 0 76 -89
104 -144 46z"/>
<path d="M1640 263 c-7 -32 -15 -75 -20 -95 -6 -29 -5 -38 5 -38 8 0 19 25 28
63 15 66 18 63 32 -26 4 -23 11 -37 18 -34 7 2 29 33 50 68 21 35 36 54 33 42
-26 -104 -27 -113 -12 -113 10 0 18 19 26 58 7 31 15 74 20 95 7 31 5 37 -9
37 -11 0 -32 -26 -57 -70 -21 -38 -42 -70 -45 -70 -4 0 -10 32 -13 70 -6 59
-10 70 -26 70 -15 0 -21 -12 -30 -57z"/>
<path d="M2307 313 c-9 -15 -39 -175 -33 -180 9 -10 26 8 26 29 0 12 10 32 22
45 l22 23 25 -47 c20 -37 32 -49 53 -51 21 -3 30 3 43 27 13 26 22 31 51 31
30 0 35 -4 41 -30 3 -17 12 -30 20 -30 9 0 12 7 9 18 -2 9 -10 52 -17 95 -16
104 -30 102 -94 -13 l-49 -89 -32 50 -31 51 41 39 c57 54 23 51 -39 -3 l-47
-42 7 42 c4 27 3 42 -4 42 -5 0 -12 -3 -14 -7z"/>
<path d="M2960 316 c0 -8 -30 -151 -36 -168 -8 -28 94 -25 130 3 26 20 35 62
16 74 -6 4 -4 15 5 29 13 19 13 25 -1 44 -12 18 -25 22 -65 22 -27 0 -49 -2
-49 -4z"/>
<path d="M4049 291 c-39 -39 -41 -100 -4 -136 28 -29 54 -31 95 -10 37 19 50
43 50 94 0 81 -82 111 -141 52z"/>
<path d="M4225 230 c-16 -82 -16 -114 1 -97 4 3 9 21 13 39 6 30 10 33 53 38
71 9 101 47 71 89 -11 17 -25 21 -67 21 l-54 0 -17 -90z"/>
<path d="M4585 308 c-12 -40 -36 -170 -32 -175 12 -11 26 9 32 48 6 36 10 40
33 37 21 -2 32 -13 47 -45 11 -24 25 -43 32 -43 18 0 16 9 -6 51 l-20 36 25
11 c19 9 24 19 24 46 0 40 -11 46 -81 46 -31 0 -51 -5 -54 -12z"/>
</g>
</svg>
