<?xml version="1.0" standalone="no"?>
<!DOCTYPE svg PUBLIC "-//W3C//DTD SVG 20010904//EN"
 "http://www.w3.org/TR/2001/REC-SVG-20010904/DTD/svg10.dtd">
<svg version="1.0" xmlns="http://www.w3.org/2000/svg"
 width="1948.000000pt" height="402.000000pt" viewBox="0 0 1948.000000 402.000000"
 preserveAspectRatio="xMidYMid meet">
<metadata>
Created by potrace 1.15, written by Peter Selinger 2001-2017
</metadata>
<g transform="translate(0.000000,402.000000) scale(0.100000,-0.100000)"
fill="#000000" stroke="none">
<path d="M7510 3819 c-270 -31 -543 -132 -780 -290 -130 -86 -377 -331 -454
-451 -217 -335 -336 -770 -306 -1123 73 -873 631 -1527 1425 -1671 147 -26
458 -25 615 4 216 39 439 117 583 204 43 26 88 50 98 53 18 6 19 23 19 441 0
262 -4 434 -9 434 -5 0 -72 -41 -148 -91 -260 -170 -424 -235 -657 -258 -307
-31 -483 2 -670 126 -143 96 -285 265 -336 401 -34 91 -68 248 -80 368 -20
200 11 375 100 561 142 300 328 457 615 521 86 19 315 21 400 3 207 -43 344
-112 550 -276 109 -87 165 -125 183 -125 11 0 12 81 10 436 l-3 436 -41 37
c-53 46 -232 140 -345 179 -223 78 -518 109 -769 81z"/>
<path d="M560 2397 c0 -962 3 -1383 11 -1399 6 -13 32 -39 57 -58 81 -59 537
-447 595 -505 57 -57 70 -64 84 -42 4 6 10 394 13 860 l5 848 100 -89 c55 -49
199 -185 320 -303 121 -118 465 -441 765 -718 300 -277 601 -559 671 -627 126
-124 158 -146 237 -159 l42 -7 0 1736 0 1736 -380 0 -380 0 0 -900 0 -901 -43
30 c-23 16 -60 48 -82 70 -60 62 -1328 1255 -1419 1336 -163 145 -393 359
-436 408 -43 47 -49 50 -103 55 l-57 4 0 -1375z"/>
<path d="M12170 3701 l-75 -6 -3 -1642 -2 -1642 37 -8 c48 -10 669 -11 704 -1
l26 8 7 1641 c4 902 5 1643 2 1646 -8 8 -609 12 -696 4z"/>
<path d="M8880 3396 c0 -161 3 -314 6 -340 l7 -46 523 0 524 0 0 -1304 0
-1303 68 -6 c87 -9 557 -9 645 0 l67 6 0 1303 0 1304 520 0 520 0 0 340 0 340
-1440 0 -1440 0 0 -294z"/>
<path d="M3790 1995 l0 -1675 1055 0 1055 0 0 370 0 370 -645 0 -645 0 0 310
0 310 540 0 540 0 0 355 0 355 -540 0 -540 0 0 280 0 280 635 0 635 0 0 360 0
360 -1045 0 -1045 0 0 -1675z"/>
</g>
</svg>
